<?xml version="1.0" encoding="UTF-8"?><svg version="1.1" width="197px" height="25px" viewBox="0 0 197.0 25.0" xmlns="http://www.w3.org/2000/svg" xmlns:xlink="http://www.w3.org/1999/xlink"><defs><clipPath id="i0"><path d="M1440,0 L1440,796 L0,796 L0,0 L1440,0 Z"></path></clipPath><clipPath id="i1"><path d="M59.7589013,0.000570236517 L59.7589013,7.33375924 L65.9183682,14.8408691 L62.8528742,14.8688105 L58.5701824,9.57192147 L54.3125522,14.8460012 L51.2698418,14.8374477 L57.2675469,7.33375924 L57.2675469,0.000570236517 L59.7589013,0.000570236517 Z M13.5298659,0 C13.6987018,0.00015105661 13.8605543,0.0674813612 13.9797789,0.187162928 C14.0990036,0.306844494 14.1658225,0.469061791 14.1655201,0.638090088 L14.1655201,13.1832034 L15.2819021,13.1906165 L14.5055609,14.8277538 L11.8473188,14.84315 L11.8319401,2.44230547 C11.8309974,2.05043944 11.5130907,1.73344616 11.1216705,1.7340768 L9.10534797,1.7340768 L9.10534797,6.47727009 L10.6107549,6.47727009 L10.6107549,8.20336363 L9.10534797,8.20336363 L9.10534797,14.8374477 L6.7956904,14.8374477 L6.7956904,8.20336363 L5.14390079,8.20336363 L5.14390079,6.47727009 L6.7956904,6.47727009 L6.7956904,1.7340768 L5.24300813,1.7340768 L5.24300813,0 L13.5298659,0 Z M2.67703838,5.09046484 C3.02711972,5.09046484 3.31118112,5.3740839 3.31212303,5.72456331 L3.32750171,13.1489895 L4.55552192,13.1569728 L3.80822954,14.8294645 L1.64381545,14.8351714 C1.47493361,14.8356213 1.31281317,14.768775 1.19323508,14.6493815 C1.07365691,14.5299879 1.00645189,14.3678625 1.00645251,14.1987874 L1.00189583,6.81085609 L0,6.81085609 L0,5.09046484 L2.67703838,5.09046484 Z M23.3227002,0.000567433663 C23.5199575,0.000155561193 23.706188,0.0916095452 23.8266038,0.248026977 C23.9269503,0.37837483 23.9720797,0.541479774 23.9550281,0.702680785 L23.9372798,0.798895631 L20.7772354,12.7931644 C20.7501478,12.8939778 20.7714255,13.0016692 20.8348106,13.0845661 C20.8823495,13.1467387 20.9495193,13.1896619 21.0241252,13.2072961 L21.1007583,13.216277 L31.7251832,13.216277 L30.8041681,14.8294645 L18.5906077,14.820911 C18.3934502,14.8211481 18.2073848,14.7296195 18.0871002,14.5732277 C17.9868631,14.4429011 17.9417993,14.279872 17.9588545,14.1187517 L17.9765976,14.0225856 L21.0722792,2.32255667 C21.1121134,2.17065928 21.0794623,2.00885644 20.9838515,1.88435373 C20.9073629,1.78475158 20.7974745,1.71799912 20.6762635,1.69502688 L20.5835772,1.68617728 L17.2230398,1.67933449 L17.2230398,0.000567433663 L23.3227002,0.000567433663 Z M48.0129682,0.000570236517 C48.3321648,0.0014268389 48.5960797,0.237091276 48.6416611,0.544032837 L48.6486224,0.638090088 L48.6486224,7.22142341 L43.0097544,7.22142341 L43.0097544,8.31056737 L48.6486224,8.31056737 L48.6486224,9.58332611 L43.0097544,9.58332611 L43.0097544,10.870911 L48.6486224,10.870911 L48.6486224,12.1778836 L43.0097544,12.1778836 L43.0120327,13.2077234 L48.6509008,13.2077234 L48.6509008,14.8294645 L35.1990677,14.8294645 L35.1990677,13.2077234 L40.5531445,13.2077234 L40.5531445,12.151653 L35.1990677,12.1767432 L35.1990677,10.870911 L40.5531445,10.870911 L40.5531445,9.58332611 L35.1614753,9.58332611 L36.8633882,7.22142341 L35.7920033,7.22142341 C35.6229171,7.22112165 35.460893,7.15350803 35.3416518,7.03348905 C35.2462589,6.93747386 35.1845135,6.81422654 35.1639368,6.68209778 L35.1563409,6.58162266 L35.1563409,0.000570236517 L48.0129682,0.000570236517 Z M27.6646286,6.70878451 L31.6898691,11.0813267 L28.2307938,11.0813267 L24.2078316,6.70878451 L27.6646286,6.70878451 Z M40.5531445,7.22142341 L39.2374086,7.22142341 L38.4120833,8.31056737 L40.5531445,8.31056737 L40.5531445,7.22142341 Z M65.7064834,0.000570236517 L63.9219805,7.24936486 L61.4904326,7.24936486 L63.2817699,0.000570236517 L65.7064834,0.000570236517 Z M53.8266982,0.000570236517 L55.6094918,7.2248448 L53.1859177,7.2248448 L51.4031241,0.000570236517 L53.8266982,0.000570236517 Z M46.1880255,1.52936336 L37.6049848,1.52936336 L37.6049848,3.03990906 L45.4976913,3.03990906 L44.7914088,4.40333478 L37.6049848,4.40333478 L37.6049848,5.69206008 L46.1880255,5.69206008 L46.1880255,1.52936336 Z M28.8898008,0.000570236517 L32.0225053,0.0017107008 L27.1736484,4.74319332 L23.5852778,4.7517468 L28.8898008,0.000570236517 Z M3.31326222,0 L3.31326222,1.77855494 L0,1.77855494 L0,0 L3.31326222,0 Z"></path></clipPath><clipPath id="i2"><path d="M8.02072973,0.000558284816 C9.62680341,0.255588665 12.8232656,1.75374394 12.1867633,4.94158237 L12.134707,5.17216476 C11.8148038,6.26924912 11.2969561,7.29842055 10.60678,8.20876946 C9.58520493,9.47840281 6.0943211,9.48728384 4.01213906,8.92351546 C1.75111933,8.31250005 0.117096132,6.88371855 0,6.77892226 C0.924930128,7.5 2.06382695,7.89130742 3.23611109,7.89082828 C6.17203036,7.89082828 8.55227521,5.48690874 8.55227521,2.52170754 C8.55353165,1.67101952 8.3535026,0.83213061 7.96856878,0.0737380839 C7.95981818,0.0569091355 7.96123965,0.0365879541 7.97224758,0.0211442307 C7.98325551,0.0057005947 8.00198807,-0.00225344987 8.02072973,0.000558284816 Z"></path></clipPath><clipPath id="i3"><path d="M0.0855156786,0.0142863424 L6.23519126,6.06156321 L6.69115647,6.51129901 C8.09499972,7.9874372 8.97963236,9.88169547 9.21085221,11.9067076 C9.21374619,11.9313463 9.19831578,11.9544343 9.17446258,11.9611562 C9.15060938,11.967878 9.1254149,11.9562383 9.11504625,11.933706 C8.33440543,10.2505715 6.96296144,9.75252291 5.31474474,9.38129547 C4.06252588,9.09958889 3.24249819,8.69035066 2.88020987,8.48253436 L2.76355727,8.40837768 L2.6449531,8.33724056 C0.180563918,6.83514488 0.0117922918,4.30440565 0.000747263338,4.0352011 L0,0.0498104972 C0.00025354184,0.0296515825 0.012471952,0.0115797099 0.0310718932,0.0038531067 C0.049671747,-0.0038734965 0.0710807431,0.000229175665 0.0855156786,0.0142863424 Z"></path></clipPath><clipPath id="i4"><path d="M7.1228099,0.00633074013 C7.14235281,0.017227817 7.15229564,0.0397882836 7.14716182,0.0615857 C7.08080736,0.345778936 6.97542085,0.964964958 7.04425917,1.81221604 C7.12480711,2.8147077 7.44983757,4.13869294 8.37134859,5.6133006 C8.95008729,6.5401258 9.76443765,7.5269868 10.9016894,8.53160991 L11.1095351,8.71242787 L11.3243,8.89324582 C11.8442892,9.43323218 12.1340459,10.1545647 12.1322632,10.9046235 C12.1322632,12.499658 10.8520123,13.792382 9.27298873,13.792382 C8.62639851,13.7931132 7.99904262,13.5722225 7.49525668,13.1664464 C7.47664861,13.1510863 7.4715218,13.1246791 7.48302808,13.1034591 C7.49453435,13.0822392 7.5194468,13.0721576 7.54244996,13.0794122 C7.64221928,13.1120707 7.74654594,13.128619 7.85151276,13.1284356 C8.29182515,13.1235504 8.67890158,12.8353293 8.81024385,12.4145547 C8.92845182,12.0358576 8.81530827,11.6273424 8.52965045,11.3635214 L8.42812247,11.2811795 C7.80688841,10.7904326 7.22549983,10.2511438 6.68942243,9.66838289 C6.01239393,8.92557281 5.51420313,8.20159049 5.15226965,7.51384286 C4.24497263,8.63974388 3.82688107,10.0830375 3.99170745,11.5202189 C4.15653384,12.9574003 4.89049244,14.2682668 6.02907125,15.1589963 C6.15290927,15.2712526 7.78693248,16.6982579 10.0479522,17.3092733 C12.1315535,17.8709102 15.6224375,17.8620291 16.640464,16.5966588 C14.9457638,18.8304176 12.2759721,20.2709221 9.27476291,20.2709221 C4.15233971,20.2709221 0,16.0790718 0,10.9046235 C-0.00495159579,8.49392334 0.917744922,6.17392757 2.57650973,4.4264386 L3.04382973,3.96675603 L7.06306552,0.0146938184 C7.0788735,-0.00115171393 7.10326699,-0.0045663368 7.1228099,0.00633074013 Z"></path></clipPath><clipPath id="i5"><path d="M41.0542025,0 C41.4205737,0 41.6163062,0.0646865363 41.7702155,0.137180068 C41.8709169,0.181316074 41.9624613,0.243921882 42.0401145,0.321759754 C42.0981653,0.379606563 42.1475614,0.44553061 42.1867745,0.517492291 L41.6748587,0.646307721 C41.6616237,0.62081788 41.645332,0.597035745 41.6263438,0.575487116 C41.4919519,0.420462486 41.2398975,0.38644629 41.0508566,0.38644629 C40.9902588,0.385916526 40.9296985,0.389643312 40.8696228,0.397599141 C40.8517783,0.400944997 40.5657076,0.423250699 40.5657076,0.636827797 C40.5657076,0.74668338 40.6432199,0.793525355 40.7385768,0.824195695 C40.8908132,0.869364742 41.2772595,0.924571355 41.4339571,0.955241696 C41.5335011,0.970426826 41.6317444,0.993170039 41.7278347,1.02327409 C41.852189,1.06509728 42.1661418,1.17662579 42.1639112,1.57757079 C42.1639112,1.77330332 42.0925329,2.08335258 41.6514377,2.22387851 C41.5349043,2.25686909 41.4153313,2.27798119 41.2945464,2.28689212 C41.2164765,2.29358383 41.1406371,2.29692968 41.0631248,2.29692968 C40.6783514,2.29692968 40.463659,2.21774444 40.3097497,2.13521334 C40.2576491,2.10561839 40.2075402,2.07264709 40.1597438,2.03651061 C40.0715379,1.9629387 39.9951769,1.87623325 39.933341,1.77943739 C39.9141655,1.74987048 39.8968452,1.71914097 39.8814802,1.68742637 L40.3744362,1.56139915 C40.502694,1.83129815 40.8356066,1.89933054 41.0993715,1.89933054 C41.1200043,1.89933054 41.3932492,1.9026764 41.5404668,1.80062781 C41.6034876,1.75963603 41.6421203,1.69009708 41.6436307,1.61493284 C41.6454284,1.55856762 41.6196196,1.50486873 41.574483,1.47106106 C41.5047777,1.41752737 41.3659247,1.39633696 41.1701922,1.36566662 C40.7737083,1.30265301 40.5579006,1.27365559 40.3833585,1.1911245 C40.1760844,1.10484331 40.0413289,0.902049508 40.0420813,0.677535704 C40.0392403,0.479507286 40.1390138,0.294093119 40.3058462,0.187367898 C40.4446992,0.0920110215 40.6677562,0 41.0542025,0 Z M0.516217679,0.680323916 L0.516217679,2.22889729 L0,2.22889729 L0,0.680323916 L0.516217679,0.680323916 Z M5.94948841,0.0680323916 L5.94948841,0.455593967 L4.48846492,0.454478682 L4.48846492,1.00598717 L5.86361146,1.00598717 L5.86361146,1.39243346 L4.48846492,1.39243346 L4.48846492,2.22889729 L3.94866693,2.22889729 L3.94866693,0.0680323916 L5.94948841,0.0680323916 Z M9.70409573,0.0680323916 L9.70409573,1.83129815 L10.9052578,1.83129815 L10.9052578,2.22889729 L9.16262481,2.22889729 L9.16262481,0.0680323916 L9.70409573,0.0680323916 Z M14.6130231,0.0680323916 L15.2515239,0.97141333 L15.8911399,0.0680323916 L16.5491581,0.0680323916 L15.5164041,1.41752737 L15.5164041,2.22889729 L14.978279,2.22889729 L14.978279,1.41752737 L13.9483132,0.0680323916 L14.6130231,0.0680323916 Z M21.7246386,0.0680323916 L21.7246386,0.462285678 L20.9244216,0.462285678 L20.9244216,2.22889729 L20.3796048,2.22889729 L20.3796048,0.462285678 L19.5782724,0.462285678 L19.5782724,0.0680323916 L21.7246386,0.0680323916 Z M27.0032831,0.0680323916 L27.0032831,0.455593967 L25.5311067,0.455593967 L25.5311067,0.944088845 L26.9547682,0.944088845 L26.9547682,1.32886221 L25.5311067,1.32886221 L25.5311067,1.84412393 L27.0646237,1.84412393 L27.0646237,2.22889729 L24.9879629,2.22889729 L24.9879629,0.0680323916 L27.0032831,0.0680323916 Z M30.9318749,0.0680323916 L30.9318749,1.01323652 L31.9863769,0.0680323916 L32.6845454,0.0680323916 L31.6311586,0.979777968 L32.8306477,2.22889729 L32.1057124,2.22889729 L31.2603263,1.29819187 L30.9318749,1.58091664 L30.9318749,2.22889729 L30.3920769,2.22889729 L30.3920769,0.0680323916 L30.9318749,0.0680323916 Z M46.9362162,0.0684506236 L47.0198625,0.071378247 C47.2429196,0.0858769534 47.4542661,0.153351702 47.5741592,0.359121805 C47.6386989,0.476679002 47.6708378,0.609276202 47.6672856,0.743337525 C47.6683787,0.849986326 47.6474982,0.955717726 47.6059449,1.05394443 C47.5874629,1.10270008 47.5594003,1.1472589 47.5234138,1.18499043 C47.4829534,1.23266477 47.435587,1.27401642 47.3828878,1.30767179 C47.2144798,1.40916274 46.9930957,1.41418152 46.8040549,1.41418152 L46.0512374,1.41418152 L46.0512374,2.22889729 L45.5175735,2.22889729 L45.5175735,0.0680323916 L46.9362162,0.0684506236 Z M52.3196974,0.0680323916 L53.3636042,2.22889729 L52.7574468,2.22889729 L52.5734247,1.82181823 L51.4642737,1.82181823 L51.2819246,2.22889729 L50.6902658,2.22889729 L51.7347303,0.0680323916 L52.3196974,0.0680323916 Z M58.1943744,0.0661979048 C58.274818,0.0704443998 58.3546866,0.0833742083 58.4325751,0.1048368 C58.7102811,0.189040826 58.8641904,0.426596554 58.8641904,0.712667185 C58.8655254,0.810590595 58.8455462,0.907632735 58.8056379,0.997064887 C58.7069352,1.21677605 58.5229132,1.28480845 58.2998561,1.32384342 L58.9578744,2.22889729 L58.3177007,2.22889729 L57.7422136,1.35953255 L57.1232303,1.35953255 L57.1232303,2.22722436 L56.5834324,2.22722436 L56.5834324,0.066359464 Z M62.7175005,0.0680323916 L62.7175005,1.01323652 L63.7692143,0.0680323916 L64.4673828,0.0680323916 L63.413996,0.979777968 L64.6134851,2.22889729 L63.8885498,2.22889729 L63.0453943,1.29819187 L62.7175005,1.58091664 L62.7175005,2.22889729 L62.1788177,2.22889729 L62.1788177,0.0680323916 L62.7175005,0.0680323916 Z M52.0219163,0.595004606 L51.6388158,1.44039072 L52.3988826,1.44039072 L52.0219163,0.595004606 Z M46.8113042,0.441095261 L46.0517951,0.441095261 L46.0517951,1.03442694 L46.8046203,1.03450694 C46.863603,1.03129186 46.9221409,1.02155975 46.9791546,1.00542953 C47.0798567,0.958847875 47.1402065,0.853794515 47.1297181,0.743337525 C47.1297181,0.698168478 47.1196806,0.511358222 46.9451384,0.455593967 C46.9017033,0.443047072 46.8564186,0.438141234 46.8113042,0.441095261 Z M57.9775387,0.446114044 L57.1249033,0.446114044 L57.1249033,0.974759185 L58.0583424,0.974180101 L58.125314,0.966394547 C58.2423473,0.944627167 58.3241972,0.838507859 58.3171431,0.719358895 C58.3172792,0.662545146 58.3022648,0.606722472 58.2736469,0.557642554 C58.2072875,0.451132827 58.0890673,0.446114044 57.9775387,0.446114044 Z M0.516217679,0.140525924 L0.516217679,0.483476095 L0,0.483476095 L0,0.140525924 L0.516217679,0.140525924 Z"></path></clipPath><clipPath id="i6"><path d="M16.211,0.008 C15.9378737,0.178469 13.2873768,1.84781137 10.3748038,4.53738549 L15.7068665,12.345066 C15.7361698,12.2936065 15.763329,12.2478647 15.7876293,12.2085553 C15.909131,12.0127233 16.0334915,11.8254678 16.157852,11.6389271 L11.2148797,4.37527372 L12.824419,4.37527372 L16.9819189,10.4989559 C21.6997557,4.43673925 27.8770416,4.13798818 28.893367,4.34454095 C28.2629879,4.49606063 28.4288019,4.46604258 28.1665014,4.53536998 C25.0160355,5.37944896 21.9663446,9.03093031 19.9665707,11.9383929 L27.1494612,22.4261277 L25.539922,22.4261277 L19.1768101,13.1276794 C19.013855,13.3821181 18.8616206,13.6251214 18.7215364,13.8531156 L24.5850621,22.4261277 L22.9755229,22.4261277 L17.9782323,15.1110149 C17.9124784,15.2275135 17.8524423,15.3332914 17.8052711,15.4197719 C17.735229,15.547706 17.6630427,15.6720665 17.5908565,15.7949976 L22.1028553,22.4261277 L20.4940307,22.4261277 L16.7996665,16.9849988 C12.2626526,23.0922425 4.59947332,22.4261277 4.59947332,22.4261277 C9.05215072,21.5177244 12.028226,18.1907238 13.8142999,15.542703 L7.95295429,6.98175133 C5.50727313,9.69678488 3.29168742,13.0443796 2.58490481,16.7329187 C2.33475439,18.0401333 2.37049017,18.9592574 2.55917505,19.7911862 C2.57132522,19.8476487 2.59205196,19.9012524 2.60991985,19.954856 C4.38527309,25.2201649 11.0907337,24.3510709 17.631095,21.0548031 C17.631095,21.0548031 15.1681854,22.5549909 12.0791852,23.532007 C8.54849072,24.6877019 4.01004747,25.3237987 1.37632094,22.3848886 C0.856722794,21.8073985 0.422175786,21.1069774 0.182746102,20.2257332 C0.025508698,19.6482431 -0.333993185,17.7506735 0.776674661,14.8217695 C1.72470781,12.3215376 3.74795926,9.2686697 7.34662804,6.09662196 L6.16827378,4.37527372 L7.77852774,4.37527372 L8.36342487,5.23224739 C8.54817275,5.08066704 8.73657986,4.92890623 8.92869986,4.77701147 L8.65476892,4.37527372 L9.44559867,4.374934 C11.0561029,3.14223223 12.9136082,1.90342452 15.0466838,0.683267993 L15.6289982,0.340561923 L16.211,0.008 Z M51.2827583,16.0992519 L53.2782439,18.5392906 L55.1908226,16.0992519 L57.5636779,16.0992519 L54.2173801,20.3696769 L54.2173801,22.1064355 L52.2990837,22.5967303 L52.2990837,20.3825418 L48.9141913,16.0992519 L51.2827583,16.0992519 Z M42.7612772,16.1038261 L42.2688383,17.4889447 L38.4758432,17.4889447 L38.4758432,18.8540513 L42.4954031,18.8540513 L41.9007598,20.2527494 L38.4758432,20.2527494 L38.4758432,22.032391 L36.4853606,22.5927279 L36.4853606,16.1038261 L42.7612772,16.1038261 Z M65.8789636,16.1038261 L65.2878939,17.586146 L63.2874053,17.586146 L63.2874053,22.1010037 L61.3541,22.5927279 L61.3541,17.586146 L58.8461634,17.586146 L58.8461634,16.1038261 L65.8789636,16.1038261 Z M34.2824646,18.0706516 L34.2781763,21.9558449 L32.4356398,22.5690708 L32.4356398,18.0706516 L34.2824646,18.0706516 Z M82.0889965,16.1385613 L78.9070832,19.2382823 L82.4785164,22.4880936 L79.7461591,22.4880936 L77.0924206,19.9980248 L76.6056994,19.9980248 L76.6056994,22.1500331 L74.6373729,22.5567062 L74.6373729,16.1607175 L76.6056994,16.1607175 L76.6056994,18.5464377 L77.0924206,18.5464377 L79.5910659,16.1385613 L82.0889965,16.1385613 Z M73.5838109,16.1652202 L73.0863689,17.5103147 L68.9939081,17.5103147 L68.9939081,18.7489166 L73.3043571,18.7489166 L72.8798161,19.9596446 L68.9939081,19.9596446 L68.9939081,21.2082526 L73.5838109,21.2082526 L73.0863689,22.5297615 L67.0291553,22.5297615 L67.0291553,16.1652202 L73.5838109,16.1652202 Z M44.5986678,16.1700802 L46.5419791,16.1750832 L46.5419791,21.023713 L50.5150825,21.013707 L49.9218686,22.5246155 L44.5986678,22.5203272 L44.5986678,16.1700802 Z M34.272673,16.1248388 L34.272673,17.5907202 L32.4315659,17.5907202 L32.4315659,16.1248388 L34.272673,16.1248388 Z M43.5059393,3.554423 L43.5059393,10.9931816 L44.3671714,10.9517282 L43.8668706,12.3318437 L43.5059393,12.3590029 L43.5059393,14.0635993 L41.7534569,14.7268553 L41.7534569,12.4297598 L38.5822644,12.6406008 L38.5822644,11.2754943 L41.7534569,11.0632238 L41.7534569,3.554423 L43.5059393,3.554423 Z M61.473386,7.3447021 L61.4876803,12.5707016 L62.7255675,12.3591459 L62.0573085,13.9515319 L59.4979124,14.6269381 L59.4979124,8.7534063 L58.7481759,8.7534063 L58.7481759,7.3447021 L61.473386,7.3447021 Z M38.4573321,3.44164089 L38.0821065,4.80889159 L36.3717924,5.00543835 L36.3717924,6.03391392 L38.4573321,6.03391392 L37.8176618,7.3447021 L36.3717924,7.3447021 L36.3717924,13.810733 L34.6886374,14.5854846 L34.6886374,7.3447021 L32.5466351,7.3447021 L32.5466351,6.03391392 L34.6886374,6.03391392 L34.6886374,5.1462373 L32.6588455,5.32920446 L32.6588455,3.93479457 L38.4573321,3.44164089 Z M69.7056218,3.79356679 L69.7056218,13.0498469 L70.6247459,13.0498469 L69.9293277,14.4028033 L67.7051331,14.4156682 L67.7187127,5.2165653 L65.8683144,5.2165653 L65.8683144,8.34487493 L67.4399737,8.34487493 L66.730976,9.75357913 L65.8683144,9.75357913 L65.8683144,13.627337 L63.8928408,14.486425 L63.8928408,9.75357913 L62.6277944,9.75357913 L62.6277944,8.34487493 L63.8928408,8.34487493 L63.8928408,5.2165653 L62.7121308,5.2165653 L62.7121308,3.79356679 L69.7056218,3.79356679 Z M52.6846013,3.70858712 L52.6988956,5.52682329 L57.4681919,5.52682329 L56.7456146,6.9498218 L52.836121,6.9498218 L57.6197116,14.4157396 L55.0345858,14.4157396 L51.6139575,9.00677293 L48.331984,14.4157396 L45.7168401,14.4157396 L50.376785,6.9498218 L46.0234531,6.9498218 L46.0234531,5.52682329 L50.5154398,5.52682329 L50.5154398,3.70858712 L52.6846013,3.70858712 Z M9.40168646,5.46655121 C9.22868538,5.63748107 9.05559009,5.81174779 8.88283112,5.98925318 L14.5876221,14.326972 C14.733424,14.0839687 14.8670758,13.8538303 14.9892922,13.638701 L9.40168646,5.46655121 Z M34.521251,7.94927992 L34.0902776,13.6134 L32.5050387,14.0636708 L32.9781803,7.94927992 L34.521251,7.94927992 Z M38.0538752,7.94949433 L38.4576895,13.8387498 L36.9410632,13.162629 L36.5665523,7.94949433 L38.0538752,7.94949433 Z M39.8623198,7.82313263 L41.266021,9.04815496 L39.9602358,10.3589431 L38.5551052,9.1332061 L39.8623198,7.82313263 Z M79.0799014,7.58341706 L75.7571891,7.58341706 L76.0216339,6.23117539 L78.648928,6.23117539 C78.8154567,6.23117539 78.9269523,6.20258677 79.0248683,6.14683896 C79.0391626,6.13254465 79.0656071,6.11896506 79.0799014,6.10467075 C79.1635231,6.03391392 79.2464301,5.92170359 79.3586404,5.75231602 L80.5557888,3.85045814 L82.4047578,3.85045814 L80.6386958,6.92159054 C80.5836627,7.02022127 80.4986116,7.1324316 80.3892601,7.25893624 C80.2892,7.372576 80.1641248,7.45691243 80.0411937,7.51337495 C79.9003947,7.55554316 79.6502443,7.58341706 79.289313,7.58341706 L79.0799014,7.58341706 Z M39.8766141,4.30158655 L41.28103,5.52660887 L39.9731007,6.82310274 L38.5551052,5.61166002 L39.8766141,4.30158655 Z M60.3189776,3.70865859 L61.6962343,4.90652173 L60.4018845,6.189436 L59.0253425,4.99157287 L60.3189776,3.70865859 Z M72.3487111,14.5576107 L74.2541425,5.24486803 L71.9177376,5.24486803 L71.9177376,3.85045814 L76.4790518,3.85045814 L74.6586715,13.2189486 L79.0799014,13.2189486 L82.4047578,13.2332429 L81.6664567,14.5711903 L79.0799014,14.5711903 L72.3487111,14.5576107 Z M78.9690411,11.5470173 C78.8939165,11.4781399 78.8159331,11.3966624 78.7325497,11.3027964 L76.2982288,8.69694377 L78.3444592,8.69694377 L79.0799014,9.42881242 L79.8039082,10.1478162 C79.9840165,10.3307833 80.1505452,10.457288 80.2892,10.5137505 C80.4149899,10.5566334 80.6386958,10.5852221 80.9288703,10.5852221 L82.4047578,10.5852221 L82.4047578,11.9374637 L80.4836026,11.9374637 C79.9704369,11.9374637 79.6237999,11.9081604 79.4279678,11.8381183 C79.3164722,11.8102444 79.2056913,11.7394875 79.0799014,11.6408568 Z"></path></clipPath></defs><g transform="translate(-35.0 -24.0)"><g clip-path="url(#i0)"><g transform="translate(0.08107159493656013 0.0)"><g transform="translate(35.54920794053032 24.499999999999886)"><g transform="translate(105.9403078844207 1.0694444444452529)"><g transform="translate(23.958617362528457 2.7235624057848336)"><g clip-path="url(#i1)"><polygon points="0,0 65.9183682,0 65.9183682,14.8688105 0,14.8688105 0,0" stroke="none" fill="#1B2443"></polygon></g></g><g transform="translate(6.037587326014545 10.47310494630983)"><g clip-path="url(#i2)"><polygon points="0,4.23272528e-16 12.2694517,4.23272528e-16 12.2694517,9.28141261 0,9.28141261 0,4.23272528e-16" stroke="none" fill="#1652D8"></polygon></g></g><g transform="translate(9.276182286965195 0.0)"><g clip-path="url(#i3)"><polygon points="0,8.67361738e-19 9.21120004,8.67361738e-19 9.21120004,11.9630503 0,11.9630503 0,8.67361738e-19" stroke="none" fill="#EA0100"></polygon></g></g><g transform="translate(0.0 2.0901890361255937)"><g clip-path="url(#i4)"><polygon points="-1.98265973e-05,-1.54390389e-16 16.640464,-1.54390389e-16 16.640464,20.2709221 -1.98265973e-05,20.2709221 -1.98265973e-05,-1.54390389e-16" stroke="none" fill="#3CC8F9"></polygon></g></g><g transform="translate(25.263500463369382 19.285063468099)"><g clip-path="url(#i5)"><polygon points="0,0 64.6134851,0 64.6134851,2.29692968 0,2.29692968 0,0" stroke="none" fill="#1B2343"></polygon></g></g></g><g transform="translate(95.2349113541959 5.25)"><path d="M0.5,0 L0.5,13.0175185" stroke="#1B2343" stroke-width="1" fill="none" stroke-linecap="round" stroke-miterlimit="10" opacity="19.6730841%"></path></g><g clip-path="url(#i6)"><polygon points="2.77555756e-17,0 82.4785164,0 82.4785164,24.5 2.77555756e-17,24.5 2.77555756e-17,0" stroke="none" fill="#1B2343"></polygon></g></g></g></g></g></svg>